OpenSim_Sub04_CSBaseline_RCS.mot
version=1
nRows=61
nColumns=11
inDegrees=no
endheader
time	Top_Thigh	Med_Thigh	Bot_Thigh	Top_Shank	2nd_Top_Shank	2nd_Bot_Shank	Bot_Shank	BNOx	BNOy	BNOZ
60.62000000	1361.23634549	1321.83638620	589.79738317	1082.91381590	1207.98414085	1101.62635598	1025.65278666	-2.51335730	-72.67897943	-49.88601226
60.63000000	1361.02424788	1321.39402682	584.02320446	1082.74179087	1207.86730120	1101.59732312	1025.26588617	-2.43173191	-72.21646559	-88.72564538
60.64000000	1360.53647913	1320.67240016	572.72897702	1082.38211272	1207.46780273	1101.34169256	1024.61954356	1.85075355	-71.66109909	-123.32369677
60.65000000	1359.71591529	1319.66987091	554.92402748	1081.80036980	1206.74893193	1100.80795161	1023.69050692	11.18969480	-71.07408252	-151.43733990
60.66000000	1358.56709733	1318.41684431	530.78556742	1080.99927781	1205.71901338	1099.99378249	1022.49659625	25.88827635	-70.49771841	-171.91574809
60.67000000	1357.19909260	1316.99803667	502.47045437	1080.04448596	1204.46271430	1098.98025633	1021.12525124	45.31330747	-69.94227231	-185.45911022
60.68000000	1355.73109340	1315.50342516	472.32730489	1079.00773951	1203.07209688	1097.85652171	1019.67065533	68.74089516	-69.41490651	-192.94691433
60.69000000	1354.28229204	1314.02298693	442.70473552	1077.96078373	1201.63922333	1096.71172722	1018.22699195	95.44714640	-68.92278331	-195.25864845
60.70000000	1352.97188081	1312.64669914	415.95136279	1076.97536387	1200.25615582	1095.63502145	1016.88844452	124.70816818	-68.47306497	-193.27380061
60.71000000	1351.91905204	1311.46453896	394.41580325	1076.12322521	1199.01495655	1094.71555300	1015.74919648	155.80006750	-68.07291379	-187.87185887
60.72000000	1351.24299802	1310.56648354	380.44667344	1075.47611302	1198.00768770	1094.04247044	1014.90343126	187.99895135	-67.72949205	-179.93231125
60.73000000	1351.06291106	1310.04251005	376.39258991	1075.10577254	1197.32641148	1093.70492238	1014.44533229	220.58092673	-67.44996204	-170.33464579
60.74000000	1351.49798347	1309.98259564	384.60216920	1075.08394906	1197.06319006	1093.79205740	1014.46908300	252.82210062	-67.24148605	-159.95835054
60.75000000	1352.66740756	1310.47671748	407.42402784	1075.48238783	1197.31008565	1094.39302409	1015.06886681	283.99858002	-67.11122636	-149.68291352
60.76000000	1354.69037562	1311.61485273	447.20678238	1076.37283412	1198.15916042	1095.59697104	1016.33886717	313.38647191	-67.06634525	-140.38782278
60.77000000	1357.68607997	1313.48697854	506.29904936	1077.82703319	1199.70247657	1097.49304685	1018.37326751	340.26188330	-67.11400501	-132.95256636
60.78000000	1361.76744927	1316.17847232	586.90632822	1079.91331007	1202.02772920	1100.16608574	1021.26134833	363.88626683	-67.26102075	-128.24011445
60.79000000	1366.80391307	1319.59589555	685.67044118	1082.56702798	1205.05284262	1103.53320092	1024.90178962	382.95138743	-67.50071088	-126.47130647
60.80000000	1372.34858693	1323.41352157	792.00579691	1085.55082805	1208.47520285	1107.29363010	1028.94567448	395.40896555	-67.80886113	-127.03283121
60.81000000	1377.93344663	1327.29009950	894.84378390	1088.61580809	1211.97745702	1111.13204998	1033.02753869	399.16126322	-68.16008549	-129.25562975
60.82000000	1383.09046796	1330.88437846	983.11579062	1091.51306592	1215.24225223	1114.73313730	1036.78191804	392.11054247	-68.52899796	-132.47064321
60.83000000	1387.35162668	1333.85510755	1045.75320556	1093.99369936	1217.95223556	1117.78156875	1039.84334832	372.15906533	-68.89021255	-136.00881267
60.84000000	1390.26584847	1335.87311169	1072.14625429	1095.81710890	1219.80154294	1119.97246520	1041.85910583	337.35194963	-69.21895602	-139.21805913
60.85000000	1391.77190640	1336.88695883	1062.23841610	1096.93365667	1220.74855272	1121.24116299	1042.76949819	289.01999671	-69.50454925	-141.83684088
60.86000000	1392.19842093	1337.12295999	1026.52642391	1097.48466636	1221.01588572	1121.76321389	1042.80786445	231.77969137	-69.75040722	-143.99415357
60.87000000	1391.89096243	1336.81950196	975.96584778	1097.61976440	1220.83765158	1121.72461384	1042.22028410	170.39037426	-69.96055768	-145.83597270
60.88000000	1391.19510126	1336.21497155	921.51225775	1097.48857716	1220.44795991	1121.31135878	1041.25283667	109.61138600	-70.13902838	-147.50827378
60.89000000	1390.45640777	1335.54775556	874.12122388	1097.24073106	1220.08092035	1120.70944465	1040.15160166	54.20206722	-70.28984710	-149.15703234
60.90000000	1390.02045233	1335.05624077	844.74831622	1097.02585249	1219.97064251	1120.10486739	1039.16265858	8.92175855	-70.41704157	-150.92822389
60.91000000	1390.19083580	1334.95070210	842.89248040	1096.97797883	1220.32272577	1119.66475071	1038.50530494	-22.09280142	-70.52443732	-152.93981277
60.92000000	1390.96097822	1335.23364988	867.28729713	1097.11593493	1221.13206090	1119.41674088	1038.20090237	-39.30629222	-70.61436510	-155.10274338
60.93000000	1392.18527570	1335.81447379	911.84127876	1097.40690701	1222.29909844	1119.32596996	1038.18209706	-45.24576260	-70.68848574	-157.23517314
60.94000000	1393.71746855	1336.60212426	970.44017784	1097.81783773	1223.72384347	1119.35727512	1038.38111675	-42.44798946	-70.74845691	-159.15482177
60.95000000	1395.41129708	1337.50555169	1036.96974694	1098.31566973	1225.30630106	1119.47549352	1038.73018916	-33.44974972	-70.79593626	-160.67940903
60.96000000	1397.12050162	1338.43370651	1105.31573862	1098.86734568	1226.94647630	1119.64546236	1039.16154201	-20.78782029	-70.83258145	-161.62665466
60.97000000	1398.69882249	1339.29553914	1169.36390545	1099.43980822	1228.54437425	1119.83201879	1039.60740305	-6.99897808	-70.86005014	-161.81427840
60.98000000	1400	1340	1223	1100	1230	1120	1040	5.38000000	-70.88000000	-161.06000000
60.99000000	1400.91209360	1340.47769174	1261.50441182	1100.52140730	1231.23363581	1120.12130344	1040.28542160	14.32672890	-70.89414532	-159.29583308
61	1401.46043924	1340.74582593	1285.73607841	1101.00369085	1232.24667275	1120.19606771	1040.46520064	19.87639098	-70.90442691	-156.91096682
61.01000000	1401.70469200	1340.84326637	1297.94857429	1101.45305501	1233.06077906	1120.23149167	1040.55473095	22.57856047	-70.91284222	-154.40888428
61.02000000	1401.70450697	1340.80887685	1300.39547394	1101.87570412	1233.69762300	1120.23477421	1040.56940633	22.98281159	-70.92138871	-152.29306853
61.03000000	1401.51953922	1340.68152118	1295.33035187	1102.27784256	1234.17887284	1120.21311421	1040.52462059	21.63871857	-70.93206381	-151.06700262
61.04000000	1401.20944382	1340.50006314	1285.00678258	1102.66567465	1234.52619681	1120.17371053	1040.43576754	19.09585562	-70.94686498	-151.23416962
61.05000000	1400.83387587	1340.30336654	1271.67834056	1103.04540478	1234.76126318	1120.12376205	1040.31824100	15.90379697	-70.96778966	-153.29805260
61.06000000	1400.45249044	1340.13029517	1257.59860032	1103.42323727	1234.90574020	1120.07046766	1040.18743478	12.61211684	-70.99683531	-157.76213460
61.07000000	1400.12494260	1340.01971284	1245.02113635	1103.80537650	1234.98129612	1120.02102621	1040.05874268	9.77038947	-71.03599937	-165.12989871
61.08000000	1399.90890400	1340.00904177	1236.13286574	1104.19756156	1235.00943518	1119.98247035	1039.94737238	7.91122823	-71.08714618	-175.82054128
61.09000000	1399.81642675	1340.10254798	1231.58758491	1104.59483075	1235.00788909	1119.95800896	1039.86425013	7.17714746	-71.14907873	-188.31466493
61.10000000	1399.81394353	1340.27134132	1230.50596968	1104.98152157	1234.99061703	1119.94702719	1039.81602078	7.32056243	-71.21753863	-199.15427849
61.11000000	1399.86590355	1340.48509007	1231.94203842	1105.34150626	1234.97141419	1119.94874394	1039.80914305	8.07692757	-71.28813441	-204.79710409
61.12000000	1399.93675600	1340.71346248	1234.94980952	1105.65865706	1234.96407571	1119.96237811	1039.85007564	9.18169733	-71.35647458	-201.70086389
61.13000000	1399.99095008	1340.92612683	1238.58330135	1105.91684621	1234.98239678	1119.98714860	1039.94527727	10.37032615	-71.41816765	-186.32328001
61.14000000	1399.99455042	1341.09396508	1241.92663166	1106.10027423	1235.03939073	1120.02199027	1040.09996334	11.38990441	-71.46898341	-155.42094708
61.15000000	1399.93779291	1341.20601978	1244.51429409	1106.19805340	1235.13637244	1120.06158788	1040.30074590	12.16163092	-71.50710473	-110.22247711
61.16000000	1399.82952056	1341.26531352	1246.22748246	1106.20307710	1235.26565128	1120.09735445	1040.51991607	12.74073350	-71.53257202	-55.39905006
61.17000000	1399.67905500	1341.27522851	1246.95630895	1106.10833597	1235.41930498	1120.12061884	1040.72939661	13.18588762	-71.54547352	4.28959935
61.18000000	1399.49571788	1341.23914696	1246.59088576	1105.90682065	1235.58941126	1120.12270992	1040.90111024	13.55576880	-71.54589745	64.08373638
61.19000000	1399.28883084	1341.16045106	1245.02132504	1105.59152179	1235.76804783	1120.09495654	1041.00697973	13.90905251	-71.53393204	119.22362630
61.20000000	1399.06771552	1341.04252303	1242.13773899	1105.15543004	1235.94729244	1120.02868757	1041.01892780	14.30441427	-71.50966549	164.94953438
61.21000000	1398.84298066	1340.89003026	1237.88682190	1104.59490706	1236.11961103	1119.91729409	1040.91300742	14.79650746	-71.47318032	196.91348027
61.22000000	1398.63852230	1340.72090787	1232.79940028	1103.94111563	1236.28147765	1119.77545687	1040.70791024	15.39846288	-71.42449986	215.01827747
